<svg xmlns="http://www.w3.org/2000/svg" viewBox="0 0 1200 675" role="img" aria-labelledby="title desc">
  <title id="title">Neuralink card artwork</title>
  <desc id="desc">Minimal blue neural interface card.</desc>
  <defs>
    <linearGradient id="bg" x1="0" x2="1" y1="0" y2="1">
      <stop offset="0" stop-color="#eff6ff"/>
      <stop offset="1" stop-color="#bae6fd"/>
    </linearGradient>
  </defs>
  <rect width="1200" height="675" fill="url(#bg)"/>
  <g fill="none" stroke="#1769d2" stroke-width="16" stroke-linecap="round">
    <path d="M280 405c80-150 230-220 390-170 110 34 178 119 230 232"/>
    <path d="M340 250c82-88 215-119 344-68 78 31 137 83 183 152"/>
    <path d="M412 505c78-68 198-83 300-24"/>
  </g>
  <g fill="#1769d2">
    <circle cx="280" cy="405" r="30"/>
    <circle cx="340" cy="250" r="25"/>
    <circle cx="900" cy="467" r="30"/>
    <circle cx="867" cy="334" r="25"/>
    <circle cx="412" cy="505" r="24"/>
    <circle cx="712" cy="481" r="24"/>
  </g>
  <text x="86" y="112" fill="#0f172a" font-family="Segoe UI, Arial, sans-serif" font-size="44" font-weight="700">Neuralink</text>
  <text x="88" y="164" fill="#475569" font-family="Segoe UI, Arial, sans-serif" font-size="28">Brain-computer interface systems</text>
</svg>
