<svg xmlns="http://www.w3.org/2000/svg" viewBox="0 0 1200 675" role="img" aria-labelledby="title desc">
  <title id="title">Electric Vehicles and Energy</title>
  <desc id="desc">Abstract electric vehicle and energy storage illustration.</desc>
  <defs>
    <linearGradient id="sky" x1="0" x2="1" y1="0" y2="1">
      <stop offset="0" stop-color="#dff3ff"/>
      <stop offset="1" stop-color="#f7f8f5"/>
    </linearGradient>
    <linearGradient id="blue" x1="0" x2="1">
      <stop offset="0" stop-color="#1769d2"/>
      <stop offset="1" stop-color="#38a3ff"/>
    </linearGradient>
  </defs>
  <rect width="1200" height="675" fill="url(#sky)"/>
  <circle cx="1010" cy="120" r="72" fill="#fff3c4"/>
  <path d="M120 470h960" stroke="#d8e2ef" stroke-width="18" stroke-linecap="round"/>
  <path d="M280 374c42-82 104-126 186-132h246c92 0 166 44 226 132l92 20c42 10 70 47 70 90v18H174v-18c0-47 32-88 78-99l28-11z" fill="url(#blue)"/>
  <path d="M427 268h253c62 0 113 29 154 88H328c24-53 56-82 99-88z" fill="#eef8ff" opacity=".95"/>
  <circle cx="364" cy="504" r="70" fill="#182331"/>
  <circle cx="364" cy="504" r="34" fill="#f7f8f5"/>
  <circle cx="880" cy="504" r="70" fill="#182331"/>
  <circle cx="880" cy="504" r="34" fill="#f7f8f5"/>
  <rect x="116" y="120" width="132" height="260" rx="26" fill="#fff" stroke="#bfd7ff" stroke-width="8"/>
  <path d="M182 174v76h54l-64 112v-84h-46l56-104z" fill="#d85f28"/>
  <rect x="782" y="122" width="60" height="162" rx="12" fill="#fff" stroke="#bfd7ff" stroke-width="8"/>
  <rect x="866" y="92" width="60" height="192" rx="12" fill="#fff" stroke="#bfd7ff" stroke-width="8"/>
  <rect x="950" y="152" width="60" height="132" rx="12" fill="#fff" stroke="#bfd7ff" stroke-width="8"/>
  <path d="M812 338c46-50 100-50 146 0" fill="none" stroke="#1769d2" stroke-width="12" stroke-linecap="round"/>
  <text x="80" y="620" fill="#182331" font-family="Segoe UI, Arial, sans-serif" font-size="54" font-weight="700">Electric Vehicles + Energy</text>
</svg>
