<svg xmlns="http://www.w3.org/2000/svg" viewBox="0 0 1200 675" role="img" aria-labelledby="title desc">
  <title id="title">Infrastructure</title>
  <desc id="desc">Abstract tunnel and infrastructure systems illustration.</desc>
  <defs>
    <linearGradient id="bg" x1="0" x2="1" y1="0" y2="1">
      <stop offset="0" stop-color="#f7f8f5"/>
      <stop offset="1" stop-color="#e9f2ff"/>
    </linearGradient>
    <linearGradient id="tunnel" x1="0" x2="1">
      <stop offset="0" stop-color="#182331"/>
      <stop offset="1" stop-color="#37485f"/>
    </linearGradient>
  </defs>
  <rect width="1200" height="675" fill="url(#bg)"/>
  <rect x="88" y="410" width="1024" height="76" rx="38" fill="#d8e2ef"/>
  <path d="M162 430c92-182 234-274 426-274s334 92 426 274H162z" fill="url(#tunnel)"/>
  <path d="M322 430c64-100 152-150 266-150s202 50 266 150H322z" fill="#f7f8f5"/>
  <path d="M362 430c56-72 132-108 226-108s170 36 226 108H362z" fill="#1769d2" opacity=".2"/>
  <rect x="502" y="376" width="180" height="54" rx="24" fill="#1769d2"/>
  <circle cx="548" cy="430" r="32" fill="#182331"/>
  <circle cx="636" cy="430" r="32" fill="#182331"/>
  <path d="M160 520h880" stroke="#1769d2" stroke-width="10" stroke-linecap="round" stroke-dasharray="42 28"/>
  <path d="M180 160h140M860 160h160M220 250h100M900 250h160" stroke="#d85f28" stroke-width="12" stroke-linecap="round"/>
  <text x="80" y="620" fill="#182331" font-family="Segoe UI, Arial, sans-serif" font-size="56" font-weight="700">Infrastructure + Tunneling</text>
</svg>
